<?xml version="1.0" standalone="no"?>
<!DOCTYPE svg PUBLIC "-//W3C//DTD SVG 20010904//EN"
 "http://www.w3.org/TR/2001/REC-SVG-20010904/DTD/svg10.dtd">
<svg version="1.0" xmlns="http://www.w3.org/2000/svg"
 width="1679.000000pt" height="1839.000000pt" viewBox="0 0 1679.000000 1839.000000"
 preserveAspectRatio="xMidYMid meet">

<g transform="translate(0.000000,1839.000000) scale(0.100000,-0.100000)"
fill="#000000" stroke="none">
<path d="M8180 18375 c-230 -31 -372 -81 -621 -215 -431 -232 -5591 -3127
-6480 -3635 -415 -238 -420 -241 -540 -354 -257 -241 -408 -491 -494 -816 -25
-94 -27 -119 -35 -440 -11 -441 -11 -7005 0 -7450 8 -321 10 -345 34 -432 89
-320 243 -583 469 -799 153 -148 -15 -50 2857 -1664 2969 -1669 4035 -2266
4274 -2395 230 -123 516 -184 816 -172 227 10 400 46 577 120 111 47 435 228
3803 2119 3216 1806 3159 1774 3274 1856 334 241 552 582 651 1020 l25 111 -1
3673 c0 2020 -4 3826 -9 4013 -7 323 -9 345 -34 440 -113 423 -367 770 -723
987 -202 123 -567 330 -3063 1733 -4074 2290 -3867 2176 -4037 2229 -251 78
-510 103 -743 71z m535 -4395 c813 -46 1639 -325 2346 -795 374 -249 735 -580
1058 -969 50 -60 88 -113 85 -117 -8 -13 -139 -91 -958 -565 l-780 -452 -110
103 c-400 374 -791 592 -1291 720 -225 57 -407 79 -665 79 -479 0 -842 -87
-1281 -310 -744 -377 -1276 -1069 -1458 -1899 -74 -338 -79 -765 -11 -1104 80
-403 237 -773 463 -1091 267 -374 595 -659 1004 -868 302 -154 542 -233 878
-289 153 -25 640 -25 793 0 375 61 709 178 1007 352 206 120 355 234 607 465
l66 61 704 -407 c875 -506 1004 -582 1017 -598 25 -30 -135 -220 -436 -517
-200 -197 -337 -318 -499 -441 -532 -403 -1201 -704 -1869 -842 -405 -84 -598
-100 -1105 -93 -403 6 -495 15 -825 82 -700 143 -1367 440 -1920 855 -941 707
-1576 1687 -1829 2828 -74 329 -107 651 -107 1023 0 548 73 1007 241 1509 314
943 889 1740 1685 2337 497 372 1088 656 1670 801 534 134 961 173 1520 142z
m4485 -3190 l0 -400 398 2 397 3 3 398 2 397 400 0 400 0 0 -400 0 -400 400 0
400 0 -2 -397 -3 -398 -397 -3 -398 -2 0 -400 0 -400 400 0 400 0 -2 -397 -3
-398 -397 -3 -398 -2 -2 -398 -3 -397 -397 -3 -398 -2 0 400 0 400 -400 0
-400 0 -2 -397 -3 -398 -397 -3 -398 -2 0 400 0 400 -400 0 -400 0 0 400 0
400 398 2 397 3 3 398 2 397 -400 0 -400 0 0 400 0 400 398 2 397 3 3 398 2
397 400 0 400 0 0 -400z"/>
<path d="M13200 9190 l0 -400 398 2 397 3 3 398 2 397 -400 0 -400 0 0 -400z"/>
</g>
</svg>
