<?xml version="1.0" standalone="no"?>
<!DOCTYPE svg PUBLIC "-//W3C//DTD SVG 20010904//EN"
 "http://www.w3.org/TR/2001/REC-SVG-20010904/DTD/svg10.dtd">
<svg version="1.0" xmlns="http://www.w3.org/2000/svg"
 width="800.000000pt" height="800.000000pt" viewBox="0 0 800.000000 800.000000"
 preserveAspectRatio="xMidYMid meet">

<g transform="translate(0.000000,800.000000) scale(0.100000,-0.100000)"
fill="#000000" stroke="none">
<path d="M403 7958 c3 -24 151 -1656 328 -3628 178 -1972 323 -3586 324 -3587
0 -1 662 -169 1470 -372 l1470 -371 1473 377 c1315 337 1473 379 1477 398 2
11 148 1620 325 3575 176 1955 323 3576 326 3603 l6 47 -3602 0 -3603 0 6 -42z
m5847 -1585 c0 -37 -70 -744 -75 -760 -4 -10 -357 -13 -1725 -13 l-1720 0 0
-27 c0 -33 69 -719 76 -750 l4 -23 1641 0 1641 0 -6 -87 c-20 -257 -84 -1001
-146 -1685 -38 -425 -75 -844 -82 -931 l-12 -157 -45 -14 c-25 -7 -442 -125
-927 -261 l-881 -248 -919 323 c-505 178 -920 324 -922 325 -1 1 -29 328 -62
726 -32 398 -61 743 -63 767 l-5 42 454 0 c357 0 454 -3 454 -12 0 -19 62
-813 64 -814 0 0 227 -85 503 -188 l502 -187 493 177 c271 97 498 182 503 189
6 7 32 277 58 601 26 324 50 599 53 612 l4 22 -1565 0 c-1446 0 -1565 1 -1565
16 0 23 -101 1081 -150 1567 -43 422 -76 731 -86 785 l-6 32 2256 0 2256 0 0
-27z"/>
</g>
</svg>
