<?xml version="1.0" standalone="no"?>
<!DOCTYPE svg PUBLIC "-//W3C//DTD SVG 20010904//EN"
 "http://www.w3.org/TR/2001/REC-SVG-20010904/DTD/svg10.dtd">
<svg version="1.0" xmlns="http://www.w3.org/2000/svg"
 width="320.000000pt" height="320.000000pt" viewBox="0 0 320.000000 320.000000"
 preserveAspectRatio="xMidYMid meet">

<g transform="translate(0.000000,320.000000) scale(0.100000,-0.100000)"
fill="#000000" stroke="none">
<path d="M2195 2975 c-18 -17 -25 -35 -25 -64 l0 -40 -857 -3 c-961 -3 -896 2
-948 -76 l-25 -38 0 -1153 c-1 -1151 -1 -1153 20 -1186 12 -19 38 -44 58 -57
l37 -23 1146 0 1145 0 41 27 c78 51 73 -12 73 987 0 765 2 891 14 891 8 0 24
12 36 27 20 26 21 34 18 361 l-3 334 -24 19 c-22 18 -43 19 -353 19 l-329 0
-24 -25z m670 -355 l0 -315 -317 -3 -318 -2 0 313 c0 173 3 317 7 320 4 4 146
6 317 5 l311 -3 0 -315z m-695 -80 c0 -254 0 -260 22 -280 21 -19 34 -20 315
-20 l293 0 0 -416 0 -416 -29 5 c-16 4 -79 29 -140 56 -188 85 -258 98 -348
63 -87 -33 -166 -94 -323 -246 -215 -209 -317 -261 -463 -236 -68 12 -90 24
-244 134 -94 67 -161 80 -259 51 -67 -20 -301 -149 -457 -251 -70 -46 -130
-84 -132 -84 -3 0 -5 410 -5 911 0 651 3 917 11 932 6 12 21 30 33 39 20 16
81 18 874 18 l852 0 0 -260z m305 -1077 c27 -9 92 -35 145 -59 53 -23 115 -47
138 -54 l42 -11 0 -437 c0 -476 1 -461 -57 -491 -31 -16 -2255 -16 -2286 0
-53 27 -57 41 -57 231 l0 178 143 94 c151 100 353 214 446 252 100 42 150 29
280 -71 94 -71 131 -90 209 -105 96 -19 163 -8 270 45 82 41 109 62 240 188
163 158 206 194 272 227 84 43 113 45 215 13z"/>
<path d="M2461 2735 c-63 -65 -71 -77 -61 -95 15 -28 31 -25 70 15 21 22 36
31 41 24 3 -6 4 -48 2 -92 -6 -107 5 -152 38 -152 l24 0 3 129 3 129 38 -37
c41 -40 73 -45 79 -12 3 12 -20 43 -69 92 -41 41 -78 74 -85 74 -6 0 -43 -34
-83 -75z"/>
<path d="M821 2590 c-73 -33 -118 -76 -152 -145 -29 -60 -31 -71 -27 -142 5
-89 26 -138 84 -195 145 -145 393 -98 476 90 30 66 29 169 -2 240 -28 65 -102
134 -167 156 -65 22 -158 20 -212 -4z m215 -68 c81 -42 124 -113 124 -206 0
-65 -11 -96 -51 -147 -58 -74 -181 -104 -269 -67 -120 51 -173 198 -114 316
58 117 196 163 310 104z"/>
</g>
</svg>
