<?xml version="1.0" standalone="no"?>
<!DOCTYPE svg PUBLIC "-//W3C//DTD SVG 20010904//EN"
 "http://www.w3.org/TR/2001/REC-SVG-20010904/DTD/svg10.dtd">
<svg version="1.0" xmlns="http://www.w3.org/2000/svg"
 width="800.000000pt" height="800.000000pt" viewBox="0 0 800.000000 800.000000"
 preserveAspectRatio="xMidYMid meet">

<g transform="translate(0.000000,800.000000) scale(0.100000,-0.100000)"
fill="#000000" stroke="none">
<path d="M5280 6054 c-739 -99 -1219 -540 -1256 -1156 -17 -278 68 -540 246
-754 167 -201 460 -387 835 -528 259 -98 308 -118 390 -159 171 -84 276 -172
332 -278 26 -50 28 -62 28 -169 0 -110 -2 -118 -33 -182 -60 -123 -178 -205
-358 -250 -117 -29 -390 -31 -564 -4 -221 34 -464 106 -657 196 l-81 38 -91
-367 c-51 -201 -94 -374 -97 -384 -4 -14 8 -24 62 -48 352 -160 860 -247 1281
-220 414 27 720 118 983 294 112 74 283 253 347 361 153 260 205 570 147 877
-49 259 -188 481 -409 654 -175 137 -313 210 -675 355 -319 128 -421 175 -525
245 -152 101 -209 191 -209 330 0 101 31 174 102 243 108 105 243 151 467 159
258 9 522 -37 757 -132 62 -25 120 -47 128 -48 10 -2 39 88 117 363 56 201
102 368 103 371 0 8 -104 52 -200 84 -258 88 -518 125 -855 124 -118 -1 -256
-7 -315 -15z"/>
<path d="M2410 4645 c0 -897 -4 -1399 -11 -1463 -35 -326 -157 -514 -377 -582
-152 -47 -388 -46 -595 1 -51 12 -103 22 -117 23 l-25 1 -46 -335 c-26 -184
-49 -352 -52 -372 l-5 -36 82 -22 c381 -104 893 -99 1229 11 406 133 661 416
777 862 68 264 64 168 67 1800 l4 1477 -466 0 -465 0 0 -1365z"/>
</g>
</svg>
