<?xml version="1.0" standalone="no"?>
<!DOCTYPE svg PUBLIC "-//W3C//DTD SVG 20010904//EN"
 "http://www.w3.org/TR/2001/REC-SVG-20010904/DTD/svg10.dtd">
<svg version="1.0" xmlns="http://www.w3.org/2000/svg"
 width="800.000000pt" height="800.000000pt" viewBox="0 0 800.000000 800.000000"
 preserveAspectRatio="xMidYMid meet">

<g transform="translate(0.000000,800.000000) scale(0.100000,-0.100000)"
fill="#000000" stroke="none">
<path d="M3685 7993 c-400 -23 -662 -66 -911 -148 -243 -80 -379 -158 -519
-299 -95 -96 -152 -189 -174 -286 -7 -27 -11 -243 -11 -552 l0 -508 970 0 970
0 0 -140 0 -140 -1439 0 c-1575 0 -1499 3 -1678 -60 -328 -114 -586 -392 -734
-792 -198 -536 -213 -1460 -33 -2078 149 -514 428 -833 829 -946 51 -15 122
-18 457 -22 l397 -4 4 569 c3 540 5 573 26 665 84 375 271 628 565 764 74 33
132 52 251 81 63 15 192 17 1215 23 l1145 6 105 26 c246 61 421 156 558 303
109 118 185 266 225 438 21 90 21 114 24 1131 4 1019 3 1040 -17 1120 -141
558 -846 864 -1970 854 -113 -1 -227 -3 -255 -5z m-658 -635 c73 -27 154 -102
190 -177 24 -49 28 -68 28 -146 0 -82 -3 -97 -33 -157 -50 -103 -131 -164
-246 -188 -227 -47 -444 162 -406 393 36 224 257 354 467 275z"/>
<path d="M6187 5413 c-3 -540 -5 -573 -26 -665 -39 -175 -110 -342 -196 -463
-112 -157 -296 -288 -480 -344 -190 -57 -116 -54 -1355 -61 l-1145 -6 -105
-26 c-477 -118 -743 -401 -800 -851 -6 -51 -10 -458 -10 -1073 0 -962 1 -993
20 -1070 40 -155 115 -280 240 -398 247 -232 626 -370 1190 -433 196 -21 775
-24 985 -5 435 41 771 126 1003 254 211 117 373 301 411 468 7 27 11 243 11
553 l0 507 -970 0 -970 0 0 140 0 140 1473 2 1472 3 90 27 c197 58 341 143
485 288 111 111 181 209 255 358 99 199 166 437 207 742 19 143 22 210 22 495
0 354 -12 502 -59 761 -117 630 -413 1051 -835 1183 -109 35 -191 41 -557 41
l-352 0 -4 -567z m-948 -4129 c222 -101 275 -391 104 -562 -67 -67 -129 -94
-228 -100 -65 -3 -91 0 -137 18 -76 28 -159 104 -195 178 -24 50 -28 69 -28
147 0 82 3 97 33 157 32 66 86 124 144 154 93 49 212 52 307 8z"/>
</g>
</svg>
